<svg xmlns="http://www.w3.org/2000/svg" width="260" height="180" viewBox="0 41 260 180"> <g transform="translate(0.000000,260.000000) scale(0.100000,-0.100000)" fill="#4d4d4d" stroke="none"> <path d="M1360 2135 c-342 -47 -694 -191 -969 -396 -39 -29 -69 -54 -67 -56 2 -2 96 12 210 31 198 35 209 38 298 85 183 98 420 180 628 218 135 25 407 25 513 0 119 -28 227 -87 289 -157 29 -33 54 -57 56 -55 10 10 -52 97 -106 146 -175 162 -500 232 -852 184z"/> <path d="M85 1761 l-80 -28 -3 -371 -2 -372 85 0 c71 0 85 3 85 16 0 12 5 14 18 9 124 -55 194 -55 283 -2 96 57 145 157 137 277 -8 106 -65 194 -155 240 -59 31 -169 34 -220 7 -18 -9 -34 -17 -38 -17 -3 0 -5 61 -5 135 0 102 -3 135 -12 134 -7 0 -49 -13 -93 -28z m292 -376 c83 -55 83 -193 -2 -245 -117 -72 -249 64 -183 189 39 76 118 100 185 56z"/> <path d="M1595 1761 l-80 -28 -3 -371 -2 -372 90 0 c73 0 90 3 90 15 0 19 3 19 50 -5 156 -79 350 29 377 210 24 153 -57 296 -191 335 -72 22 -120 17 -208 -20 -17 -7 -18 3 -18 129 0 103 -3 136 -12 135 -7 0 -49 -13 -93 -28z m281 -367 c95 -45 102 -199 11 -254 -63 -39 -148 -15 -183 51 -24 46 -15 131 17 165 26 29 73 53 102 54 11 0 34 -7 53 -16z"/> <path d="M2495 1761 l-80 -28 -3 -371 -2 -372 95 0 95 0 0 400 c0 314 -3 400 -12 399 -7 0 -49 -13 -93 -28z"/> <path d="M2224 1764 c-75 -37 -69 -148 10 -174 112 -37 177 124 71 175 -40 18 -42 18 -81 -1z"/> <path d="M1315 1671 l-80 -28 -3 -51 c-3 -50 -4 -52 -33 -52 l-30 0 3 -77 c3 -77 3 -78 31 -81 l27 -3 0 -195 0 -194 95 0 95 0 0 195 0 195 25 0 c25 0 25 1 25 80 0 79 0 80 -25 80 -25 0 -25 1 -25 80 0 58 -3 80 -12 79 -7 0 -49 -13 -93 -28z"/> <path d="M573 1528 c2 -7 53 -131 112 -275 l107 -261 -30 -96 c-18 -60 -25 -96 -18 -96 6 0 52 14 102 30 l90 30 107 333 c59 183 107 336 107 340 0 4 -40 7 -89 7 l-89 0 -41 -115 c-22 -64 -44 -127 -47 -140 -3 -14 -9 -25 -13 -25 -4 0 -29 62 -57 138 l-49 137 -99 3 c-77 2 -97 0 -93 -10z"/> <path d="M2255 1511 l-80 -28 -3 -246 -2 -247 95 0 95 0 0 275 c0 214 -3 275 -12 274 -7 0 -49 -13 -93 -28z"/> <path d="M2083 894 c-182 -32 -197 -36 -285 -83 -179 -96 -409 -176 -623 -218 -136 -26 -432 -24 -536 5 -123 33 -195 75 -273 155 l-69 72 29 -53 c15 -29 55 -79 89 -110 287 -269 912 -268 1480 2 144 69 323 181 410 258 14 12 -14 9 -222 -28z"/> </g> </svg>
